<svg width="90" height="90" viewBox="0 0 90 90" fill="none" xmlns="http://www.w3.org/2000/svg">
<g filter="url(#filter0_d_4_126)">
<path d="M77.3289 34.0114C78.8512 41.4824 77.7663 49.2494 74.2551 56.0173C70.7438 62.7852 65.0185 68.1449 58.0339 71.2024C51.0494 74.26 43.2277 74.8306 35.8732 72.8193C28.5188 70.8079 22.0762 66.336 17.6198 60.1494C13.1634 53.9628 10.9626 46.4355 11.3844 38.8226C11.8063 31.2098 14.8252 23.9717 19.9377 18.3153C25.0503 12.6589 31.9475 8.92613 39.4791 7.73954C47.0107 6.55295 54.7215 7.98423 61.3256 11.7947" stroke="white" stroke-width="6.66667" stroke-linecap="round" stroke-linejoin="round"/>
<path d="M34.6589 37.3447L44.6589 47.3447L77.9923 14.0114" stroke="white" stroke-width="6.66667" stroke-linecap="round" stroke-linejoin="round"/>
</g>
<defs>
<filter id="filter0_d_4_126" x="-3.34106" y="-3.32194" width="96" height="96" filterUnits="userSpaceOnUse" color-interpolation-filters="sRGB">
<feFlood flood-opacity="0" result="BackgroundImageFix"/>
<feColorMatrix in="SourceAlpha" type="matrix" values="0 0 0 0 0 0 0 0 0 0 0 0 0 0 0 0 0 0 127 0" result="hardAlpha"/>
<feOffset dy="4"/>
<feGaussianBlur stdDeviation="4"/>
<feColorMatrix type="matrix" values="0 0 0 0 0 0 0 0 0 0 0 0 0 0 0 0 0 0 0.15 0"/>
<feBlend mode="normal" in2="BackgroundImageFix" result="effect1_dropShadow_4_126"/>
<feBlend mode="normal" in="SourceGraphic" in2="effect1_dropShadow_4_126" result="shape"/>
</filter>
</defs>
</svg>
